# xmcd
# Track frame offsets:
# 150
# 13335
# 26927
# 36625
# 49550
# 60122
# 71800
# 86482
# 100047
# 115377
# 130995
# 146710
# 160507
# 177662
# 188377
# 201077
# 212170
# 227060
#
# Disc length: 3139 seconds
# Revision: 0
# Processed by: cddbd v1.5.1PL0 Copyright (c) Steve Scherf et al.
# Submitted via: VisiTrax 2.9.9.209 - For more info visit www.synapsa.com
#
DISCID=010c4112
DTITLE=Tennessee five - Tennessee five
DYEAR=1991
DGENRE=Svensk country
TTITLE0=I miss a lot of trains
TTITLE1=Take me home country roads
TTITLE2=Sittin' in an all nite cafe
TTITLE3=Come sundown
TTITLE4=Don't it make you wanna go home
TTITLE5=Dixie boy
TTITLE6=Sunday morning christian
TTITLE7=Pamela Brown
TTITLE8=Lucille
TTITLE9=I'll remember her that way
TTITLE10=Luckenbach Texas
TTITLE11=Goodtime Charlie's got the blues
TTITLE12=Me and Jesus
TTITLE13=Daydreams about night things
TTITLE14=Canadian Pacific
TTITLE15=Help me make it through the night
TTITLE16=Secondhanded flowers
TTITLE17=Why don't they sing a country song
EXTD=
EXTT0=
EXTT1=
EXTT2=
EXTT3=
EXTT4=
EXTT5=
EXTT6=
EXTT7=
EXTT8=
EXTT9=
EXTT10=
EXTT11=
EXTT12=
EXTT13=
EXTT14=
EXTT15=
EXTT16=
EXTT17=
PLAYORDER=
